<svg xmlns="http://www.w3.org/2000/svg" viewBox="0 0 198.43 64.39"><defs><style>.cls-1{fill:#fff;}</style></defs><g id="Ebene_2" data-name="Ebene 2"><g id="Logos"><path class="cls-1" d="M185.67,15.77c5.86,0,8.27-2.76,8.27-6.79s-2.45-6.54-7.55-6.64H181V15.77Zm10.85,7.83c-4.85,0-5-5.06-8.59-7.25a14.34,14.34,0,0,1-2.26.14H181v6.4h3.16v.71h-6.69v-.71h2.81V2.34h-2.81V1.62h8.95c5.6.11,8.26,2.94,8.26,7.36,0,3.67-1.76,6.36-5.89,7.22,3.27,1.87,3.49,6.69,7.69,6.69h.72v.71ZM186.25,4.1c4.2,0,5.6,2.12,5.6,4.88s-1.44,5-5.6,5h-3.31V4.1Zm-10.5,0h2.73V21.16h-2.73v4.1h10.64v-4.1h-3.45V17.93h2.77c.47,0,.9,0,1.33,0,3.05,1.73,2.69,7.51,9,7.51a12.17,12.17,0,0,0,2.41-.21v-4h-1c-3,0-3.56-2.8-5.53-4.49,3.34-1.51,4.78-4.27,4.78-7.76,0-5.28-3.38-9-10.1-9H175.75Zm-7.36,16v3.52h-16v-.72h2.8V2.41h-2.8V1.69h16V5.21h-.72V2.41H155.92V12.94h6.58v.71h-6.58v9.27h11.75v-2.8ZM170,6.9V0H150.82V4.1h2.77V21.16h-2.77v4.1H170v-6.9H166.2v2.8H158v-6h6.11v-4H158V4.1h8.16V6.9ZM140.19,23.46,123.59,3.38V22.89h3v.71h-6.68v-.71h3V2.41h-3V1.69h3.27l16.92,20.55V2.41h-3V1.69h6.68v.72h-3V23.46ZM135.45,4.1h2.76V16.85L123.8,0h-5.38V4.1h2.76V21.16h-2.76v4.1h10v-4.1h-2.76V8.69l13.69,16.57h3.34V4.1h2.76V0h-10ZM108,22.89h2.8v.71h-6.32v-.71h2.8V2.41h-2.8V1.69h6.32v.72H108ZM102.64,4.1h2.77V21.16h-2.77v4.1h10v-4.1h-2.76V4.1h2.76V0h-10Zm-6,16v3.52h-16v-.72h2.8V2.41h-2.8V1.69h7.72v.72h-4.2V22.92H95.93v-2.8Zm1.62,5.14v-6.9H94.45v2.8H86.3V4.1h3.84V0H79.08V4.1h2.76V21.16H79.08v4.1Zm-36.9-9.49c5.86,0,8.27-2.76,8.27-6.79s-2.45-6.54-7.55-6.64H56.66V15.77ZM72.21,23.6c-4.85,0-5-5.06-8.58-7.25a14.48,14.48,0,0,1-2.27.14h-4.7v6.4h3.16v.71H53.14v-.71h2.8V2.34h-2.8V1.62h8.94c5.61.11,8.27,2.94,8.27,7.36,0,3.67-1.77,6.36-5.9,7.22,3.27,1.87,3.49,6.69,7.69,6.69h.72v.71ZM61.94,4.1c4.2,0,5.6,2.12,5.6,4.88s-1.43,5-5.6,5H58.63V4.1Zm-10.49,0h2.73V21.16H51.45v4.1H62.08v-4.1H58.63V17.93H61.4c.47,0,.9,0,1.33,0,3.05,1.73,2.69,7.51,9,7.51a12.17,12.17,0,0,0,2.41-.21v-4h-1c-3,0-3.56-2.8-5.53-4.49,3.34-1.51,4.78-4.27,4.78-7.76,0-5.28-3.38-9-10.1-9H51.45Zm-7.37,16v3.52h-16v-.72H30.9V2.41H28.09V1.69h16V5.21h-.72V2.41H31.61V12.94h6.58v.71H31.61v9.27H43.36v-2.8ZM45.7,6.9V0H26.51V4.1h2.77V21.16H26.51v4.1H45.7v-6.9H41.89v2.8H33.73v-6h6.11v-4H33.73V4.1h8.16V6.9ZM11.17,4.1c3.27,0,4.57,1.4,4.57,3.12,0,1.91-1.58,3.77-5.21,3.74H7.33V4.1ZM10.1,14.16c4.56,0,6.14,1.76,6.14,3.48,0,1.87-1.3,3.52-5.07,3.52H7.33v-7Zm.86-2c3.81,0,6.82-2.77,6.82-5.5s-2.22-4.42-6.72-4.42H5.5v9.92ZM5.5,23h5.56c4.07,0,7.4-1.72,7.4-4.88,0-2.73-3.05-5.21-7.5-5.21H5.5ZM1.9,23H4.78V2.26H1.9V1.55h9.16c5,0,7.44,2,7.44,5.13,0,2.88-2.94,5.68-6.18,5.82,3.45.15,6.86,2.73,6.86,5.61,0,3.66-3.7,5.6-8.12,5.6H1.9ZM.11,4.1H2.87V21.16H.11v4.1H11c5.74,0,10.09-2.66,10.09-7.15,0-2.7-1.61-4.74-5.1-5.75,2.84-1,4.42-2.95,4.42-5.68C20.37,2.7,17.46,0,11,0H.11Z"/><path class="cls-1" d="M195.4,47.11h1.69v.44h-3.8v-.44H195V34.79h-1.68v-.44h3.8v.44H195.4ZM192.2,35.8h1.67V46.08H192.2v2.46h6V46.08h-1.67V35.8h1.67V33.34h-6Zm-3.65,9.65v2.12h-9.63v-.43h1.69V34.79h-1.69v-.44h9.63v2.12h-.43V34.79H181v6.33h4v.44h-4v5.58h7.08V45.45Zm1-8V33.34H178V35.8h1.67V46.08H178v2.46h11.55V44.39h-2.29v1.69h-4.91V42.44H186V40.06h-3.68V35.8h4.91v1.69Zm-21.45,5.34c3.52,0,5-1.66,5-4.09s-1.47-3.93-4.54-4h-3.27v8.09Zm6.53,4.72c-2.92,0-3-3-5.17-4.37a9.5,9.5,0,0,1-1.36.09h-2.84v3.84h1.9v.44h-4v-.44h1.69V34.74h-1.69v-.43h5.39c3.37.06,5,1.77,5,4.43a4.06,4.06,0,0,1-3.54,4.35c2,1.13,2.09,4,4.62,4H175v.44ZM168.41,35.8c2.53,0,3.38,1.28,3.38,2.94s-.87,3-3.38,3h-2v-6Zm-6.32,0h1.65V46.08h-1.65v2.46h6.41V46.08h-2.08V44.13h1.67c.28,0,.54,0,.8,0,1.84,1,1.62,4.52,5.4,4.52a7.06,7.06,0,0,0,1.45-.13V46.12h-.6c-1.84,0-2.14-1.69-3.33-2.7a4.74,4.74,0,0,0,2.87-4.68c0-3.18-2-5.4-6.07-5.4h-6.52Zm-3.67,9.65v2.12h-9.63v-.43h1.69V34.79h-1.69v-.44h9.63v2.12H158V34.79h-7.08v6.33h4v.44h-4v5.58H158V45.45Zm1-8V33.34H147.84V35.8h1.67V46.08h-1.67v2.46h11.55V44.39H157.1v1.69h-4.91V42.44h3.68V40.06h-3.68V35.8h4.91v1.69ZM144.9,34.35v2.12h-.43V34.79H139.8V47.11h1.68v.44h-3.8v-.44h1.68V34.79h-4.78v1.68h-.43V34.35Zm-8.33,14.19h6V46.08h-1.67V35.8h2.7v1.69h2.3V33.34H133.13v4.15h2.29V35.8h2.79V46.08h-1.64ZM130,34.25V37h-.43A3.44,3.44,0,0,0,126,34.55a2.79,2.79,0,0,0-2.94,2.9c0,1.53.95,2.49,3.14,3.18,3.46,1.1,4,2.25,4,4s-1,3.15-3.59,3.15-4.35-1.53-4.43-2v1.86h-.44V45.11h.44c0,.45,1.55,2.22,4.43,2.22,2.25,0,3.16-1.32,3.16-2.72s-.59-2.53-3.74-3.55c-2.36-.76-3.44-1.88-3.44-3.61A3.2,3.2,0,0,1,126,34.12a3.69,3.69,0,0,1,3.64,2.09v-2Zm-9.26,9.54,0,4.75h2.43l-.2-1.25s.74,1.51,3.7,1.51c2.64,0,4.69-1.66,4.69-4.37,0-2-1-3.31-4.37-4.65-2.14-.84-3-1.51-3-2.57s.61-1.73,2.12-1.73c1.21,0,2.23.35,2.34,1.62v.71H131l0-4.47H128.5l.2,1A2.84,2.84,0,0,0,126,33.08c-3,0-4.67,2-4.67,4.19,0,1.91,1,3.4,4,4.52,2.74,1,3.31,1.63,3.31,2.64s-.78,1.86-2.51,1.86c-1.41,0-3-.49-3-2.22v-.28Zm-8.48-13.26a.43.43,0,0,1,.41-.42.42.42,0,0,1,0,.83.43.43,0,0,1-.41-.41m1.77,0a1.36,1.36,0,0,0-1.36-1.37,1.37,1.37,0,1,0,1.36,1.37m-5.9,0a.43.43,0,0,1,.41-.42.42.42,0,0,1,0,.83.43.43,0,0,1-.41-.41m1.77,0a1.36,1.36,0,1,0-2.72,0,1.36,1.36,0,0,0,2.72,0M103.69,41a6.93,6.93,0,1,1,6.93,6.92A6.87,6.87,0,0,1,103.69,41m.44,0a6.49,6.49,0,1,0,13,0,6.49,6.49,0,1,0-13,0m1.23,0a5.24,5.24,0,1,1,10.47,0,5.24,5.24,0,1,1-10.47,0m-2.9,0a8.13,8.13,0,0,0,16.25,0c0-4.54-3.42-7.85-8.14-7.85a7.9,7.9,0,0,0-8.11,7.85m-9.39,1.9c3.53,0,5-1.66,5-4.09s-1.47-3.93-4.54-4H90.24v8.09Zm6.54,4.72c-2.92,0-3-3-5.17-4.37a9.54,9.54,0,0,1-1.37.09H90.24v3.84h1.9v.44h-4v-.44h1.69V34.74H88.12v-.43h5.39c3.37.06,5,1.77,5,4.43a4.06,4.06,0,0,1-3.55,4.35c2,1.13,2.1,4,4.63,4H100v.44ZM93.42,35.8c2.53,0,3.38,1.28,3.38,2.94s-.87,3-3.38,3h-2v-6Zm-6.32,0h1.65V46.08H87.1v2.46h6.41V46.08H91.43V44.13H93.1c.28,0,.54,0,.8,0,1.84,1,1.62,4.52,5.4,4.52a7.06,7.06,0,0,0,1.45-.13V46.12h-.6c-1.84,0-2.14-1.69-3.33-2.7a4.74,4.74,0,0,0,2.87-4.68c0-3.18-2-5.4-6.08-5.4H87.1Zm-3.67,9.65v2.12H73.8v-.43h1.69V34.79H73.8v-.44h9.63v2.12H83V34.79H75.92v6.33h4v.44h-4v5.58H83V45.45Zm1-8V33.34H72.85V35.8h1.67V46.08H72.85v2.46H84.4V44.39H82.11v1.69H77.2V42.44h3.67V40.06H77.2V35.8h4.91v1.69Zm-15.2,8v2.12H59.57v-.43h1.69V34.79H59.57v-.44H69.2v2.12h-.44V34.79H61.69v6.33h4v.44h-4v5.58h7.07V45.45Zm1-8V33.34H58.62V35.8h1.66V46.08H58.62v2.46H70.17V44.39H67.88v1.69H63V42.44h3.67V40.06H63V35.8h4.91v1.69ZM51.35,47.57H46.18v-.43h1.69V34.79H46.18v-.44H55.8v2.12h-.42V34.79H48.3v6.33h4v.44h-4v5.58h3.05Zm5.43-10.08V33.34H45.23V35.8H46.9V46.08H45.23v2.46h7V46.08h-2.7V42.62h3.69V40.24H49.56V35.8h4.93v1.69ZM38,47.57H32.79v-.43h1.69V34.79H32.79v-.44h9.63v2.12H42V34.79H34.91v6.33h4v.44h-4v5.58H38Zm5.43-10.08V33.34H31.84V35.8h1.67V46.08H31.84v2.46h7V46.08h-2.7V42.62h3.69V40.24H36.17V35.8H41.1v1.69Zm-21-2.08L19,43.14h7l-3.42-7.73ZM15.51,47.07h1.25l5.65-12.5h.26l5.54,12.5h1.25v.43H26v-.43h1.79l-1.56-3.5H18.8l-1.56,3.5H19v.43h-3.5Zm7-9.26,1.94,4.55H20.55ZM14.56,48.54h5.69V46.08H19l.67-1.58h5.73L26,46.08H24.87v2.46h5.65V46.08H28.88L23.17,33.34H21.91L16.2,46.08H14.56ZM3.22,47.11H4.91v.44H1.11v-.44H2.79V34.79H1.11v-.44h3.8v.44H3.22Zm5.48.09H11l-6-5.86,5.69-6.55H8.7v-.44h4v.44H11.36L5.67,41.34l6,5.86H12.7v.43h-4ZM7.59,48.54h6.23V46.08h-1.9L7.1,41.34l4.84-5.54h1.88V33.34H7.59V35.8H8.7l-4.33,5v-5H5.69V33.34H0V35.8H1.69V46.08H0v2.46H5.69V46.08H4.37V42l4.18,4h-1Z"/><path class="cls-1" d="M0,31H105.12V29.69H0Zm116.13,0h82.2V29.69h-82.2Z"/><path class="cls-1" d="M54.55,63.66a5.29,5.29,0,0,1-1.81.31c-2.38,0-3-1.34-3-2.89s.62-2.9,3-2.9a4.77,4.77,0,0,1,1.71.31v1.39a4.19,4.19,0,0,0-1.55-.3c-1,0-1.45.36-1.45,1.5s.41,1.5,1.45,1.5V62h-.67V60.56h2.32Z"/><path class="cls-1" d="M58,63.87H56.37V58.28H58Z"/><path class="cls-1" d="M63.87,59.68H61.44v.62h2v1.4h-2v.77H64v1.4H59.78V58.28h4.09Z"/><path class="cls-1" d="M68.06,62.32c0-.37-.54-.5-1.19-.78s-1.45-.72-1.45-1.71c0-1.19,1.14-1.65,2.18-1.65a5.76,5.76,0,0,1,1.75.26v1.24a6,6,0,0,0-1.75-.31c-.4,0-.57.13-.57.36s.28.41.67.57c.87.34,2,.88,2,1.86,0,1.45-1.29,1.81-2.32,1.81a7.6,7.6,0,0,1-1.92-.26V62.47a7.4,7.4,0,0,0,1.92.31C68,62.78,68.06,62.51,68.06,62.32Z"/><path class="cls-1" d="M71,59.68v-1.4h4.45v1.4h-1.4v4.19H72.41V59.68Z"/><path class="cls-1" d="M85.43,61a4,4,0,0,1-.8,1.7l.8.63-1.14,1.09-1-.75a4.51,4.51,0,0,1-1.77.33C79.87,64,79,63.34,79,62.42A1.79,1.79,0,0,1,80.2,60.9a1.89,1.89,0,0,1-.51-1.25c0-1.11,1.15-1.47,2.08-1.47s2,.37,2,1.5c0,.74-.57,1.12-1.23,1.36l1,.74a2.77,2.77,0,0,0,.38-.81Zm-4.65,1.09c0,.46.56.62.93.62l.36,0c-.45-.36-.81-.68-1.11-.95A.43.43,0,0,0,80.78,62.06Zm1-2.69c-.33,0-.45.15-.45.41s.12.29.32.5c.33-.16.56-.31.56-.5S82.06,59.37,81.74,59.37Z"/><path class="cls-1" d="M92.17,62.58a4,4,0,0,0,1.55-.32v1.4A4.73,4.73,0,0,1,92,64c-2.37,0-3-1.34-3-2.89s.63-2.9,3-2.9a4.73,4.73,0,0,1,1.71.31v1.39a4.19,4.19,0,0,0-1.55-.3c-1,0-1.45.36-1.45,1.5S91.14,62.58,92.17,62.58Z"/><path class="cls-1" d="M100.76,61.08a2.8,2.8,0,1,1-5.59,0,2.8,2.8,0,1,1,5.59,0Zm-3.88,0c0,.61.05,1.5,1.09,1.5s1.08-.89,1.08-1.5,0-1.5-1.08-1.5S96.88,60.51,96.88,61.08Z"/><path class="cls-1" d="M106.87,58.28h2v5.59h-1.65V61.44h0l-.86,2.43H104.9L104,61.44h0v2.43h-1.65V58.28h2l1.28,3.52h0Z"/><path class="cls-1" d="M112.3,62.42v1.45h-1.65V58.28h2.43a2.08,2.08,0,1,1-.06,4.14Zm0-1.4h.31c.41,0,1-.07,1-.67s-.46-.67-.93-.67h-.36Z"/><path class="cls-1" d="M119.84,58.23l1.77,5.64H119.8l-.27-1.14H118l-.29,1.14h-1.81l1.8-5.64Zm-1.47,3.1h.84l-.39-1.86h0Z"/><path class="cls-1" d="M127.57,63.66a5.35,5.35,0,0,1-1.82.31c-2.37,0-3-1.34-3-2.89s.63-2.9,3-2.9a4.73,4.73,0,0,1,1.71.31v1.39a4.19,4.19,0,0,0-1.55-.3c-1,0-1.45.36-1.45,1.5s.42,1.5,1.45,1.5V62h-.67V60.56h2.33Z"/><path class="cls-1" d="M132.74,63.87l-1.69-2.74h0v2.74h-1.65V58.28h1.81L132.87,61h0V58.28h1.65v5.59Z"/><path class="cls-1" d="M141.75,61.08a2.8,2.8,0,1,1-5.59,0,2.8,2.8,0,1,1,5.59,0Zm-3.88,0c0,.61,0,1.5,1.08,1.5s1.09-.89,1.09-1.5,0-1.5-1.09-1.5S137.87,60.51,137.87,61.08Z"/><path class="cls-1" d="M146.71,63.87,145,61.13h0v2.74h-1.66V58.28h1.81L146.85,61h0V58.28h1.65v5.59Z"/></g></g></svg>